# xmcd CD database file
#
# Track frame offsets:
#	180
#	17315
#	41995
#	56996
#	77410
#	89701
#	113264
#	135956
#	156998
#	169666
#	182114
#	196965
#	206656
#	224260
#	242809
#	258169
#	281491
#
# Disc length: 4179 seconds
#
# Revision: 0
# Processed by: cddbd v1.5.2PL0 Copyright (c) Steve Scherf et al.
# Submitted via: CDex 1.51
#
DISCID=e8105111
DTITLE=Harry Lookofsky - Stringsville - Miracle in Strings etc
DYEAR=1952
DGENRE=Jazz
TTITLE0='Round Midnight
TTITLE1=Moose the Mooche
TTITLE2=I Let a Song Go out of My Heart
TTITLE3=Little Willie Leaps
TTITLE4=Move
TTITLE5=Champagne Blues
TTITLE6=Give Me the Simple Life
TTITLE7=Dancing on the Grave
TTITLE8=Swingin' till the Girls Come Home
TTITLE9=Leaky Faucet
TTITLE10=Fiddle Mambo
TTITLE11=The Little Bandmaster
TTITLE12=Body and Soul
TTITLE13=Stardust
TTITLE14=Sigi
TTITLE15=Angel Eyes
TTITLE16=Indian Summer
EXTD=YEAR: 1952
EXTT0=
EXTT1=
EXTT2=
EXTT3=
EXTT4=
EXTT5=
EXTT6=
EXTT7=
EXTT8=
EXTT9=
EXTT10=
EXTT11=
EXTT12=
EXTT13=
EXTT14=
EXTT15=
EXTT16=
PLAYORDER=
